<?xml version="1.0" standalone="no"?>
<!DOCTYPE svg PUBLIC "-//W3C//DTD SVG 20010904//EN"
 "http://www.w3.org/TR/2001/REC-SVG-20010904/DTD/svg10.dtd">
<svg version="1.0" xmlns="http://www.w3.org/2000/svg"
 width="700.000000pt" height="700.000000pt" viewBox="0 0 700.000000 700.000000"
 preserveAspectRatio="xMidYMid meet">
<metadata>
Created by potrace 1.14, written by Peter Selinger 2001-2017
</metadata>
<g transform="translate(0.000000,700.000000) scale(0.100000,-0.100000)"
fill="#000000" stroke="none">
<path d="M3297 6214 c-1 -1 -45 -4 -97 -7 -336 -19 -707 -123 -1020 -285 -87
-44 -352 -210 -370 -231 -3 -3 -25 -22 -50 -41 -111 -86 -310 -282 -407 -401
-230 -283 -441 -710 -508 -1026 -2 -10 -10 -50 -19 -89 -8 -38 -18 -92 -22
-120 -3 -27 -8 -58 -10 -68 -24 -129 -24 -491 1 -671 96 -703 456 -1319 1022
-1748 176 -133 433 -273 653 -355 125 -47 370 -113 465 -127 23 -3 50 -7 60
-9 11 -2 54 -7 95 -11 41 -4 84 -9 95 -11 26 -5 328 -5 380 1 22 2 69 7 105
10 396 40 803 191 1163 432 l139 93 48 -47 c26 -27 177 -174 336 -328 158
-154 310 -302 336 -328 55 -54 84 -68 113 -57 11 5 112 98 224 207 193 189
204 201 197 228 -5 18 -42 63 -94 113 -621 603 -692 673 -692 684 0 3 11 19
23 35 51 62 170 252 227 365 153 299 243 607 278 943 14 140 7 475 -12 595 -3
14 -10 59 -16 100 -77 480 -335 989 -685 1350 -84 87 -159 157 -220 205 -27
22 -59 48 -70 58 -11 10 -76 56 -145 102 -261 173 -528 291 -828 364 -123 30
-144 34 -267 52 -100 14 -417 31 -428 23z m-44 -676 c-1 -233 -2 -426 -2 -430
-1 -4 -241 -7 -535 -7 l-534 0 36 102 c96 273 261 526 410 629 50 35 200 77
364 103 130 21 121 19 198 23 l65 3 -2 -423z m452 408 c118 -14 353 -74 403
-103 105 -61 237 -230 337 -432 48 -96 101 -229 110 -274 2 -9 7 -22 10 -27 4
-7 -172 -10 -529 -10 l-536 1 0 430 0 431 93 -7 c50 -4 101 -8 112 -9z m-1617
-421 c-49 -97 -68 -145 -123 -300 l-43 -120 -182 -3 -182 -2 34 42 c51 66 225
237 306 301 73 59 225 167 229 163 1 -1 -16 -38 -39 -81z m2657 1 c98 -69 237
-190 320 -278 88 -94 125 -136 125 -143 0 -3 -81 -4 -181 -3 l-181 3 -43 125
c-48 140 -58 167 -120 292 -50 100 -56 100 80 4z m-2891 -686 c-1 -8 -11 -60
-22 -115 -12 -55 -24 -113 -27 -130 -2 -16 -7 -39 -9 -50 -2 -11 -7 -45 -12
-75 -4 -30 -8 -57 -9 -60 -2 -8 -16 -120 -20 -165 -12 -108 -15 -141 -21 -232
-5 -84 -8 -139 -13 -258 -1 -21 -6 -21 -347 -21 l-346 0 6 93 c4 51 9 99 11
106 2 6 6 30 9 52 12 82 18 113 47 228 50 192 162 461 251 602 l25 40 239 0
c204 0 239 -3 238 -15z m989 8 c-2 -5 -10 -8 -16 -8 -21 -1 -181 -85 -255
-135 -289 -194 -489 -470 -582 -808 l-20 -72 5 90 c10 162 30 381 40 436 2 9
6 40 10 70 3 30 8 61 10 69 2 8 7 31 10 50 3 19 8 46 10 60 3 14 7 36 10 50 3
14 14 66 25 115 l21 90 368 0 c203 0 367 -3 364 -7z m1796 -3 c5 -6 12 -23 14
-40 3 -16 12 -59 21 -95 22 -97 57 -302 71 -430 2 -19 6 -51 9 -70 2 -20 7
-76 11 -125 3 -50 8 -110 10 -135 4 -51 1 -46 -41 70 -119 331 -371 611 -694
773 l-125 63 357 -1 c223 0 361 -4 367 -10z m752 -17 c35 -47 134 -249 177
-358 38 -98 94 -282 106 -347 2 -15 9 -50 14 -78 12 -61 22 -135 31 -235 l6
-76 -347 0 -348 0 -1 46 c-2 92 -15 301 -23 385 -20 202 -46 368 -86 565 -23
108 -23 111 -21 120 0 3 107 5 237 5 l236 0 19 -27z m-1661 -315 c156 -53 278
-130 399 -251 48 -48 104 -113 125 -145 73 -112 132 -250 151 -349 l6 -33
-455 -1 -456 0 0 417 0 417 78 -15 c42 -8 111 -26 152 -40z m-479 -348 c0
-214 0 -399 -1 -410 0 -20 -4 -21 -449 -21 l-448 0 13 56 c59 254 242 498 473
633 114 67 320 139 384 134 l28 -2 0 -390z m-1530 -692 c0 -10 2 -49 4 -88 3
-90 15 -271 20 -310 2 -16 7 -60 10 -97 3 -37 8 -77 10 -90 2 -13 6 -43 9 -68
3 -25 15 -97 27 -160 11 -63 22 -128 25 -145 3 -16 12 -55 19 -85 8 -30 10
-57 6 -60 -5 -3 -113 -5 -241 -4 l-232 1 -31 49 c-50 80 -152 301 -191 414
-48 138 -83 273 -102 400 -3 19 -7 46 -10 60 -2 14 -7 64 -10 113 l-7 87 347
0 c323 0 346 -1 347 -17z m1530 -5 c0 -29 0 -910 0 -920 -1 -4 -7 -5 -13 -3
-7 2 -29 6 -48 9 -124 19 -284 85 -410 169 -232 156 -404 436 -435 705 l-7 62
456 0 456 0 1 -22z m1170 -28 c-1 -25 -13 -85 -26 -135 -100 -394 -429 -686
-857 -759 l-38 -7 0 476 0 475 462 -2 463 -3 -4 -45z m1303 35 c-1 -5 -4 -48
-8 -95 -19 -255 -118 -600 -239 -830 -75 -142 -99 -180 -115 -181 -79 -4 -412
-3 -432 2 -27 6 -33 31 -18 84 5 17 11 46 14 65 3 19 10 54 15 77 13 61 43
260 55 368 10 97 12 115 20 225 9 131 12 181 13 248 l1 52 348 -2 c224 -2 347
-7 346 -13z m-3731 -275 c18 -94 110 -291 195 -420 69 -104 250 -287 350 -355
39 -27 72 -51 72 -54 0 -5 -435 -6 -487 -2 -15 1 -48 133 -78 311 -3 19 -8 42
-10 50 -2 8 -7 35 -10 60 -2 25 -7 62 -10 82 -3 20 -7 56 -9 80 -3 24 -7 57
-10 73 -8 54 -18 210 -13 205 3 -3 8 -17 10 -30z m2773 -77 c-3 -16 -8 -57
-12 -93 -3 -36 -7 -76 -9 -90 -9 -77 -17 -135 -20 -152 -2 -11 -9 -55 -16 -99
-6 -43 -15 -81 -19 -84 -5 -3 -33 20 -64 50 -41 41 -56 63 -56 83 0 15 22 63
48 107 52 88 104 197 124 263 14 47 33 58 24 15z m-511 -738 c33 -15 31 -16
-40 -19 -62 -3 -75 3 -44 20 30 17 46 17 84 -1z m-2286 -400 c25 -74 70 -186
101 -250 31 -63 53 -115 49 -115 -10 0 -152 103 -232 168 -77 63 -250 233
-297 292 l-32 40 184 0 183 0 44 -135z m1282 73 c0 -97 0 -729 0 -766 l-1 -33
-87 6 c-49 3 -95 8 -103 10 -8 2 -35 7 -60 10 -134 19 -307 66 -363 98 -53 31
-156 140 -216 227 -59 86 -140 244 -180 350 -18 47 -37 93 -42 102 -5 10 -9
27 -9 38 0 20 5 20 530 20 l530 0 1 -62z m1298 49 c24 -30 -104 -323 -214
-487 -65 -97 -151 -190 -217 -235 -36 -24 -226 -79 -309 -90 -23 -3 -44 -7
-48 -9 -6 -4 -71 -12 -188 -22 l-73 -6 0 431 0 431 519 0 c422 0 521 -3 530
-13z m226 -386 c-8 -14 -138 -102 -142 -97 -2 2 16 42 39 90 l43 86 34 -34
c19 -19 30 -39 26 -45z"/>
</g>
</svg>
