<?xml version="1.0" encoding="UTF-8" standalone="no"?>
<!-- Created with Inkscape (http://www.inkscape.org/) -->

<svg
   width="512"
   height="512"
   viewBox="0 0 128 128"
   version="1.1"
   id="svg1"
   inkscape:version="1.3.2 (091e20e, 2023-11-25, custom)"
   sodipodi:docname="storg-detailed-trans.svg"
   xmlns:inkscape="http://www.inkscape.org/namespaces/inkscape"
   xmlns:sodipodi="http://sodipodi.sourceforge.net/DTD/sodipodi-0.dtd"
   xmlns:xlink="http://www.w3.org/1999/xlink"
   xmlns="http://www.w3.org/2000/svg"
   xmlns:svg="http://www.w3.org/2000/svg">
  <sodipodi:namedview
     id="namedview1"
     pagecolor="#505050"
     bordercolor="#eeeeee"
     borderopacity="1"
     inkscape:showpageshadow="0"
     inkscape:pageopacity="0"
     inkscape:pagecheckerboard="0"
     inkscape:deskcolor="#505050"
     inkscape:document-units="mm"
     inkscape:zoom="1.4142136"
     inkscape:cx="229.45615"
     inkscape:cy="240.76986"
     inkscape:window-width="1920"
     inkscape:window-height="1001"
     inkscape:window-x="-7"
     inkscape:window-y="-7"
     inkscape:window-maximized="1"
     inkscape:current-layer="layer1" />
  <defs
     id="defs1">
    <inkscape:path-effect
       effect="fillet_chamfer"
       id="path-effect1533"
       is_visible="true"
       lpeversion="1"
       nodesatellites_param="F,0,0,1,0,1.0583333,0,1 @ F,0,0,1,0,1.0583333,0,1 @ F,0,0,1,0,1.0583333,0,1 @ F,0,0,1,0,1.0583333,0,1"
       radius="4"
       unit="px"
       method="auto"
       mode="F"
       chamfer_steps="1"
       flexible="false"
       use_knot_distance="true"
       apply_no_radius="true"
       apply_with_radius="true"
       only_selected="false"
       hide_knots="false" />
    <inkscape:path-effect
       effect="fillet_chamfer"
       id="path-effect1531"
       is_visible="true"
       lpeversion="1"
       nodesatellites_param="F,0,0,1,0,0.79375,0,1 @ F,0,0,1,0,0.79375,0,1 @ F,0,0,1,0,0.79375,0,1 @ F,0,0,1,0,0.79375,0,1 @ F,0,0,1,0,0.79375,0,1 @ F,0,0,1,0,0.79375,0,1 @ F,0,0,1,0,0.79375,0,1 | F,0,0,1,0,0.79375,0,1 @ F,0,0,1,0,0.79375,0,1 @ F,0,0,1,0,0.79375,0,1 @ F,0,0,1,0,0.79375,0,1"
       radius="4"
       unit="px"
       method="auto"
       mode="F"
       chamfer_steps="1"
       flexible="false"
       use_knot_distance="true"
       apply_no_radius="true"
       apply_with_radius="true"
       only_selected="false"
       hide_knots="false" />
    <linearGradient
       id="linearGradient1520"
       inkscape:collect="always">
      <stop
         style="stop-color:#fafafa;stop-opacity:0.1;"
         offset="0.00302115"
         id="stop1520" />
      <stop
         style="stop-color:#d4d4d4;stop-opacity:0.89999998;"
         offset="1"
         id="stop1521" />
    </linearGradient>
    <inkscape:path-effect
       effect="fillet_chamfer"
       id="path-effect1520"
       is_visible="true"
       lpeversion="1"
       nodesatellites_param="F,0,0,1,0,0.79375,0,1 @ F,0,0,1,0,0.79375,0,1 @ F,0,0,1,0,0.79375,0,1 @ F,0,0,1,0,0.79375,0,1 @ F,0,0,1,0,0.79375,0,1 @ F,0,0,1,0,0.79375,0,1 @ F,0,0,1,0,0.79375,0,1 | F,0,0,1,0,0.79375,0,1 @ F,0,0,1,0,0.79375,0,1 @ F,0,0,1,0,0.79375,0,1 @ F,0,0,1,0,0.79375,0,1"
       radius="4"
       unit="px"
       method="auto"
       mode="F"
       chamfer_steps="1"
       flexible="false"
       use_knot_distance="true"
       apply_no_radius="true"
       apply_with_radius="true"
       only_selected="false"
       hide_knots="false" />
    <inkscape:path-effect
       effect="fillet_chamfer"
       id="path-effect1519"
       is_visible="true"
       lpeversion="1"
       nodesatellites_param="F,0,0,1,0,1.0583333,0,1 @ F,0,0,1,0,1.0583333,0,1 @ F,0,0,1,0,1.0583333,0,1 @ F,0,0,1,0,1.0583333,0,1"
       radius="4"
       unit="px"
       method="auto"
       mode="F"
       chamfer_steps="1"
       flexible="false"
       use_knot_distance="true"
       apply_no_radius="true"
       apply_with_radius="true"
       only_selected="false"
       hide_knots="false" />
    <meshgradient
       inkscape:collect="always"
       id="meshgradient115"
       gradientUnits="userSpaceOnUse"
       x="25.085937"
       y="-5.5703115"
       gradientTransform="translate(4.7903261,3.8111597)">
      <meshrow
         id="meshrow1507">
        <meshpatch
           id="meshpatch1507">
          <stop
             path="c 33.8607,-5.25003  48.1128,26.3529  79.8482,26.3529"
             style="stop-color:#64baff;stop-opacity:1"
             id="stop1507" />
          <stop
             path="c 4.2498,33.2363  4.60857,39.2448  4.60876,70.9811"
             style="stop-color:#0d52bf;stop-opacity:1"
             id="stop1508" />
          <stop
             path="c -30.1109,23.875  -73.4716,11.625  -105.207,11.625"
             style="stop-color:#64baff;stop-opacity:1"
             id="stop1509" />
          <stop
             path="c -8.36741e-05,-31.7363  3.25,-83.2227  20.7502,-108.959"
             style="stop-color:#0d52bf;stop-opacity:1"
             id="stop1510" />
        </meshpatch>
      </meshrow>
    </meshgradient>
    <radialGradient
       inkscape:collect="always"
       xlink:href="#linearGradient1520"
       id="radialGradient1521"
       cx="124.1918"
       cy="10.54541"
       fx="124.1918"
       fy="10.54541"
       r="16.384604"
       gradientUnits="userSpaceOnUse" />
    <filter
       style="color-interpolation-filters:sRGB;"
       inkscape:label="Blur"
       id="filter1533"
       x="-0.21349393"
       y="-0.11870159"
       width="1.4269879"
       height="1.2374032">
      <feGaussianBlur
         stdDeviation="2 2"
         result="fbSourceGraphic"
         id="feGaussianBlur1533" />
      <feColorMatrix
         result="fbSourceGraphicAlpha"
         in="fbSourceGraphic"
         values="0 0 0 -1 0 0 0 0 -1 0 0 0 0 -1 0 0 0 0 1 0"
         id="feColorMatrix1533" />
      <feGaussianBlur
         id="feGaussianBlur1534"
         stdDeviation="2 2"
         result="blur"
         in="fbSourceGraphic" />
    </filter>
    <filter
       style="color-interpolation-filters:sRGB;"
       inkscape:label="Blur"
       id="filter1537"
       x="-0.075292351"
       y="-0.077232016"
       width="1.1505847"
       height="1.154464">
      <feGaussianBlur
         stdDeviation="2 2"
         result="blur"
         id="feGaussianBlur1537" />
    </filter>
  </defs>
  <g
     inkscape:label="Layer 1"
     inkscape:groupmode="layer"
     id="layer1">
    <path
       id="path38"
       style="color:#000000;fill:url(#meshgradient115);fill-opacity:1;stroke-linecap:round;stroke-linejoin:round;-inkscape-stroke:none"
       d="m 61.729779,14.365848 c -3.681132,-10e-7 -7.261339,0.433621 -10.699219,1.224609 -1.305482,0.300366 -2.596292,0.648742 -3.865234,1.056641 -10.214841,3.283531 -18.932526,9.921405 -24.839844,18.61914 -0.241742,0.355934 -0.457463,0.704603 -0.666015,1.029297 -0.196409,0.305786 -0.416064,0.630503 -0.634766,0.990234 -4.375673,7.197351 -6.898438,15.656658 -6.898437,24.685547 0,9.028891 2.522753,17.488491 6.898437,24.685547 0.218865,0.359985 0.439086,0.683622 0.634766,0.988281 0.207443,0.322976 0.422236,0.671237 0.664062,1.027344 5.907477,8.699249 14.625369,15.337362 24.841797,18.621092 1.269151,0.40793 2.560005,0.75636 3.865234,1.05664 3.437924,0.79093 7.017993,1.22461 10.699219,1.22461 3.681227,0 7.261294,-0.43368 10.699219,-1.22461 1.305229,-0.30029 2.596062,-0.6487 3.865234,-1.05664 10.216554,-3.28377 18.934246,-9.92174 24.841798,-18.621092 0.24183,-0.356114 0.45661,-0.704354 0.66406,-1.027344 0.19569,-0.304668 0.4159,-0.62829 0.63477,-0.988281 4.3758,-7.197248 6.89844,-15.656411 6.89844,-24.685547 0,-9.029135 -2.52265,-17.488004 -6.89844,-24.685547 -0.21871,-0.359743 -0.43835,-0.684439 -0.63477,-0.990234 -0.20856,-0.32471 -0.42426,-0.673347 -0.66601,-1.029297 C 95.226515,26.568149 86.509493,19.930763 76.294232,16.647098 75.025235,16.239181 73.73454,15.890836 72.428998,15.590457 68.991118,14.799469 65.410912,14.365847 61.729779,14.365848 Z m -2.25,4.61914 v 2.990234 2.871094 0.607422 3.705078 5.560547 H 58.159467 56.06767 39.915326 c 0.355291,-1.076998 0.70138,-2.184878 1.09375,-3.142578 1.561095,-3.810335 3.412254,-6.818225 5.291016,-8.757813 0.866725,-0.894784 1.725086,-1.537638 2.566406,-1.992187 0.986023,-0.306902 1.992684,-0.580635 3.019531,-0.820313 1.448245,-0.338036 2.927785,-0.600967 4.429688,-0.789062 1.039204,-0.130148 2.102471,-0.177627 3.164062,-0.232422 z m 4.5,0 c 1.061593,0.0548 2.124859,0.102274 3.164063,0.232422 1.501984,0.188106 2.981363,0.451007 4.429687,0.789062 1.026901,0.23969 2.033469,0.513398 3.019531,0.820313 0.841299,0.454538 1.699705,1.097427 2.566407,1.992187 1.878712,1.939537 3.729956,4.947563 5.291015,8.757813 0.392362,0.957678 0.738457,2.065572 1.09375,3.142578 H 67.391888 65.300092 63.979779 v -5.560547 -3.705078 -0.607422 -2.871094 z m -24.964844,6.38086 c -0.772597,1.393239 -1.502691,2.88009 -2.167968,4.503906 -0.618871,1.510541 -1.152952,3.168456 -1.669922,4.849609 h -6.728516 c 2.997254,-3.657047 6.535009,-6.84624 10.566406,-9.353515 z m 45.429688,0 c 4.031408,2.507241 7.569114,5.696376 10.566406,9.353515 H 88.282514 C 87.765545,33.038218 87.231449,31.380268 86.612592,29.869754 85.947325,28.245968 85.217226,26.759098 84.444623,25.365848 Z M 25.167279,39.219363 h 8.835938 c -1.474159,6.123025 -2.37058,13.050058 -2.523438,20.5 H 18.768842 c 0.389299,-7.506882 2.655824,-14.495892 6.398437,-20.5 z m 13.433594,0 h 16.910156 2.0625 1.90625 v 20.5 h -4.832031 -2.001953 -16.66211 c 0.162762,-7.537652 1.0921,-14.535255 2.617188,-20.5 z m 25.378906,0 h 1.90625 2.064453 16.908203 c 1.52506,5.964653 2.454421,12.962462 2.617188,20.5 H 70.813764 68.81181 63.979779 Z m 25.476563,0 h 8.835937 c 3.742731,6.00427 6.009141,12.992937 6.398441,20.5 H 91.979779 c -0.152858,-7.449836 -1.049301,-14.377038 -2.523437,-20.5 z m -70.6875,25 h 12.710937 c 0.152612,7.450364 1.049342,14.37699 2.523438,20.5 h -8.837891 c -3.741999,-6.00407 -6.007867,-12.993051 -6.396484,-20.5 z m 17.21289,0 h 16.664063 2 4.833984 v 20.5 H 57.573529 55.509076 38.59892 c -1.525098,-5.964842 -2.454634,-12.961957 -2.617188,-20.5 z m 27.998047,0 h 4.833985 2 16.664062 c -0.162558,7.537906 -1.092124,14.535268 -2.617188,20.5 h -16.910156 -2.0625 -1.908203 z m 28,0 h 12.710941 c -0.38861,7.507129 -2.65437,14.495766 -6.396488,20.5 h -8.83789 c 1.474069,-6.122934 2.370824,-13.049762 2.523437,-20.5 z m -63.535156,25 h 6.732422 c 0.517104,1.681778 1.050784,3.340371 1.669922,4.851563 0.665144,1.623491 1.395606,3.110882 2.167968,4.503906 -4.03262,-2.508064 -7.572492,-5.696941 -10.570312,-9.355469 z m 11.470703,0 h 16.152344 2.091797 1.320312 v 5.5625 3.705078 0.607422 2.871097 2.99023 c -1.061572,-0.0548 -2.124806,-0.10228 -3.164062,-0.23242 -1.502343,-0.18813 -2.981182,-0.45096 -4.429688,-0.78906 -1.026714,-0.23966 -2.033108,-0.51324 -3.019531,-0.82032 -0.841589,-0.45463 -1.699639,-1.09735 -2.566406,-1.99218 -1.878817,-1.939657 -3.729883,-4.947388 -5.291016,-8.757816 -0.392585,-0.958224 -0.738303,-2.066858 -1.09375,-3.144531 z m 24.064453,0 h 1.320313 2.091796 16.152344 c -0.35545,1.077682 -0.701176,2.186336 -1.09375,3.144531 -1.561087,3.810318 -3.412264,6.818237 -5.291015,8.757816 -0.866738,0.8948 -1.724847,1.53757 -2.566407,1.99218 -0.986427,0.30709 -1.992802,0.58066 -3.019531,0.82032 -1.448516,0.33811 -2.927328,0.60093 -4.429687,0.78906 -1.03925,0.13014 -2.102482,0.17762 -3.164063,0.23242 v -2.99023 -2.871097 -0.607422 -3.705078 z m 24.302735,0 h 6.732421 c -2.997831,3.658556 -6.537689,6.847415 -10.570312,9.355469 0.772371,-1.393039 1.502838,-2.880453 2.167969,-4.503906 0.61912,-1.511156 1.152819,-3.169795 1.669922,-4.851563 z"
       inkscape:label="Globe" />
    <path
       id="path1534"
       style="color:#000000;fill:#1a1a1a;fill-opacity:1;stroke-linecap:round;stroke-linejoin:round;-inkscape-stroke:none;filter:url(#filter1537)"
       inkscape:label="Dropshadow"
       d="m 61.855267,37.46741 c -3.249607,10e-7 -6.498426,0.585197 -9.567871,1.751953 h 3.223633 2.0625 1.90625 v 5.341309 c 0.789232,-0.09563 1.581295,-0.161144 2.375488,-0.161133 0.709863,1.1e-5 1.418189,0.052 2.124512,0.128418 v -5.308594 h 1.90625 2.064453 3.472656 C 68.353694,38.052606 65.104874,37.467409 61.855267,37.46741 Z m 25.530274,19.635742 c 0.03965,0.864747 0.07132,1.735956 0.09033,2.616211 h -6.791504 c 0.273364,1.485947 0.346498,2.997435 0.24707,4.5 h 6.546389 c -0.0391,1.813051 -0.12503,3.592766 -0.250488,5.336426 1.112926,-4.091741 1.152578,-8.373786 0.158203,-12.452637 z m -51.356934,1.320801 c -0.604106,3.23327 -0.561475,6.556521 0.121582,9.777832 -0.07716,-1.310747 -0.139384,-2.634259 -0.168457,-3.982422 h 6.796875 c -0.09946,-1.502715 -0.02584,-3.013899 0.247559,-4.5 h -7.042481 c 0.0094,-0.435865 0.03042,-0.863252 0.04492,-1.29541 z m 49.746582,22.196289 c -0.276533,1.410377 -0.57827,2.783884 -0.914551,4.099121 h -6.530273 l 4.624512,4.5 h 0.589355 c -0.04771,0.144642 -0.09557,0.288763 -0.143066,0.434082 l 2.8125,2.736817 -0.529297,0.515136 a 1.2357942,1.20252 0 0 0 0,1.700684 l 0.480469,0.467773 c 0.148415,-0.336048 0.305116,-0.65478 0.447754,-1.002929 0.619119,-1.511155 1.152819,-3.169797 1.669922,-4.851563 h 6.732421 c -2.199822,2.684666 -4.694408,5.113082 -7.458496,7.208496 l 3.278321,3.189942 c 3.187561,-2.466788 6.051307,-5.328423 8.521484,-8.512696 l -5.037109,-4.901367 a 1.2357942,1.20252 0 0 0 -1.747559,0 l -0.529297,0.514649 -2.054199,-1.999024 h -0.531738 c 0.03351,-0.139211 0.06279,-0.284277 0.0957,-0.424316 z m -26.29541,0.852051 v 3.24707 h -1.90625 -2.064453 -7.477539 c 8.358978,5.044336 19.078055,5.15744 27.630371,0 h -7.711426 -2.0625 -1.908203 v -3.213867 c -1.496436,0.16185 -3.005453,0.14791 -4.5,-0.0332 z" />
    <g
       id="g16"
       transform="matrix(0.82567415,-0.80344259,0.82567415,0.80344259,-49.39369,154.32473)"
       style="display:inline;stroke-width:0.868167"
       inkscape:label="Magnifying Glass">
      <path
         d="m 123.3983,-11.926201 c -11.78736,0.408825 -21.2692,9.8906643 -21.67802,21.678038 -0.0152,0.438081 -0.0152,1.149075 1.3e-4,1.587162 0.36506,10.445927 7.90093,19.273841 18.16013,21.27374 0.43025,0.08387 0.78157,0.493612 0.78157,0.931988 V 55.94209 a 0.79375,0.79375 45 0 0 0.79375,0.79375 h 5.47207 a 0.79375,0.79375 135 0 0 0.79375,-0.79375 V 33.539844 c 0,-0.438376 0.35132,-0.848116 0.78158,-0.931989 10.25741,-1.999555 17.79267,-10.824838 18.15995,-21.268865 0.0154,-0.43808 0.0155,-1.149081 3e-4,-1.5871713 -0.40883,-11.7873715 -9.89067,-21.2692057 -21.67805,-21.6780207 -0.43808,-0.01519 -1.14907,-0.01519 -1.58716,10e-7 z m 1.58704,6.1057366 c 8.41746,0.4015284 15.17069,7.154963 15.57196,15.5724376 0.0209,0.4378298 0.0209,1.1490498 0,1.5868878 -0.40127,8.417472 -7.15451,15.170903 -15.57197,15.572424 -0.43783,0.02088 -1.14905,0.0209 -1.58689,2.3e-5 -8.41765,-0.401286 -15.17116,-7.1548 -15.57244,-15.572461 -0.0209,-0.43783 -0.0209,-1.14905 0,-1.5868876 0.40128,-8.4176588 7.1548,-15.1711686 15.57245,-15.5724481 0.43783,-0.020872 1.14905,-0.020861 1.58689,2.43e-5 z"
         style="fill:#485a6c;fill-opacity:1;stroke-width:1.73633"
         id="path16"
         inkscape:label="Frame"
         inkscape:path-effect="#path-effect1520"
         inkscape:original-d="m 124.19189,-11.939941 c -12.41828,-5.4e-5 -22.4854,10.0670618 -22.48535,22.485351 4.5e-4,11.055254 8.03738,20.470136 18.95557,22.205567 V 56.73584 h 7.05957 V 32.746094 c 10.91637,-1.73514 18.95271,-11.147279 18.95557,-22.200684 5e-5,-12.4182892 -10.06707,-22.485405 -22.48536,-22.485351 z m 0,6.1005855 c 9.04887,1.804e-4 16.38437,7.3358994 16.38428,16.3847655 9e-5,9.048866 -7.33541,16.384585 -16.38428,16.384766 -9.04905,8.9e-5 -16.38485,-7.335709 -16.38476,-16.384766 -9e-5,-9.0490568 7.33571,-16.3848547 16.38476,-16.3847655 z" />
      <circle
         style="display:none;fill:url(#radialGradient1521);fill-opacity:0.694301;stroke:none;stroke-width:1.73633;stroke-dasharray:none"
         id="path14"
         cx="124.1918"
         cy="10.54541"
         r="16.384604"
         inkscape:label="Lens" />
      <path
         style="fill:#273445;fill-opacity:1;stroke:none;stroke-width:1.73633;stroke-dasharray:none"
         id="path1531"
         width="10.458258"
         height="25.361275"
         x="118.96268"
         y="43.576077"
         inkscape:label="Handle"
         inkscape:path-effect="#path-effect1533"
         sodipodi:type="rect"
         d="m 120.02101,43.576077 8.34159,0 a 1.0583333,1.0583333 45 0 1 1.05833,1.058333 v 23.244608 a 1.0583333,1.0583333 135 0 1 -1.05833,1.058333 h -8.34159 a 1.0583333,1.0583333 45 0 1 -1.05833,-1.058333 l 0,-23.244608 a 1.0583333,1.0583333 135 0 1 1.05833,-1.058333 z" />
    </g>
  </g>
  <script
     id="mesh_polyfill"
     type="text/javascript">
!function(){const t=&quot;http://www.w3.org/2000/svg&quot;,e=&quot;http://www.w3.org/1999/xlink&quot;,s=&quot;http://www.w3.org/1999/xhtml&quot;,r=2;if(document.createElementNS(t,&quot;meshgradient&quot;).x)return;const n=(t,e,s,r)=&gt;{let n=new x(.5*(e.x+s.x),.5*(e.y+s.y)),o=new x(.5*(t.x+e.x),.5*(t.y+e.y)),i=new x(.5*(s.x+r.x),.5*(s.y+r.y)),a=new x(.5*(n.x+o.x),.5*(n.y+o.y)),h=new x(.5*(n.x+i.x),.5*(n.y+i.y)),l=new x(.5*(a.x+h.x),.5*(a.y+h.y));return[[t,o,a,l],[l,h,i,r]]},o=t=&gt;{let e=t[0].distSquared(t[1]),s=t[2].distSquared(t[3]),r=.25*t[0].distSquared(t[2]),n=.25*t[1].distSquared(t[3]),o=e&gt;s?e:s,i=r&gt;n?r:n;return 18*(o&gt;i?o:i)},i=(t,e)=&gt;Math.sqrt(t.distSquared(e)),a=(t,e)=&gt;t.scale(2/3).add(e.scale(1/3)),h=t=&gt;{let e,s,r,n,o,i,a,h=new g;return t.match(/(\w+\(\s*[^)]+\))+/g).forEach(t=&gt;{let l=t.match(/[\w.-]+/g),d=l.shift();switch(d){case&quot;translate&quot;:2===l.length?e=new g(1,0,0,1,l[0],l[1]):(console.error(&quot;mesh.js: translate does not have 2 arguments!&quot;),e=new g(1,0,0,1,0,0)),h=h.append(e);break;case&quot;scale&quot;:1===l.length?s=new g(l[0],0,0,l[0],0,0):2===l.length?s=new g(l[0],0,0,l[1],0,0):(console.error(&quot;mesh.js: scale does not have 1 or 2 arguments!&quot;),s=new g(1,0,0,1,0,0)),h=h.append(s);break;case&quot;rotate&quot;:if(3===l.length&amp;&amp;(e=new g(1,0,0,1,l[1],l[2]),h=h.append(e)),l[0]){r=l[0]*Math.PI/180;let t=Math.cos(r),e=Math.sin(r);Math.abs(t)&lt;1e-16&amp;&amp;(t=0),Math.abs(e)&lt;1e-16&amp;&amp;(e=0),a=new g(t,e,-e,t,0,0),h=h.append(a)}else console.error(&quot;math.js: No argument to rotate transform!&quot;);3===l.length&amp;&amp;(e=new g(1,0,0,1,-l[1],-l[2]),h=h.append(e));break;case&quot;skewX&quot;:l[0]?(r=l[0]*Math.PI/180,n=Math.tan(r),o=new g(1,0,n,1,0,0),h=h.append(o)):console.error(&quot;math.js: No argument to skewX transform!&quot;);break;case&quot;skewY&quot;:l[0]?(r=l[0]*Math.PI/180,n=Math.tan(r),i=new g(1,n,0,1,0,0),h=h.append(i)):console.error(&quot;math.js: No argument to skewY transform!&quot;);break;case&quot;matrix&quot;:6===l.length?h=h.append(new g(...l)):console.error(&quot;math.js: Incorrect number of arguments for matrix!&quot;);break;default:console.error(&quot;mesh.js: Unhandled transform type: &quot;+d)}}),h},l=t=&gt;{let e=[],s=t.split(/[ ,]+/);for(let t=0,r=s.length-1;t&lt;r;t+=2)e.push(new x(parseFloat(s[t]),parseFloat(s[t+1])));return e},d=(t,e)=&gt;{for(let s in e)t.setAttribute(s,e[s])},c=(t,e,s,r,n)=&gt;{let o,i,a=[0,0,0,0];for(let h=0;h&lt;3;++h)e[h]&lt;t[h]&amp;&amp;e[h]&lt;s[h]||t[h]&lt;e[h]&amp;&amp;s[h]&lt;e[h]?a[h]=0:(a[h]=.5*((e[h]-t[h])/r+(s[h]-e[h])/n),o=Math.abs(3*(e[h]-t[h])/r),i=Math.abs(3*(s[h]-e[h])/n),a[h]&gt;o?a[h]=o:a[h]&gt;i&amp;&amp;(a[h]=i));return a},u=[[1,0,0,0,0,0,0,0,0,0,0,0,0,0,0,0],[0,0,0,0,1,0,0,0,0,0,0,0,0,0,0,0],[-3,3,0,0,-2,-1,0,0,0,0,0,0,0,0,0,0],[2,-2,0,0,1,1,0,0,0,0,0,0,0,0,0,0],[0,0,0,0,0,0,0,0,1,0,0,0,0,0,0,0],[0,0,0,0,0,0,0,0,0,0,0,0,1,0,0,0],[0,0,0,0,0,0,0,0,-3,3,0,0,-2,-1,0,0],[0,0,0,0,0,0,0,0,2,-2,0,0,1,1,0,0],[-3,0,3,0,0,0,0,0,-2,0,-1,0,0,0,0,0],[0,0,0,0,-3,0,3,0,0,0,0,0,-2,0,-1,0],[9,-9,-9,9,6,3,-6,-3,6,-6,3,-3,4,2,2,1],[-6,6,6,-6,-3,-3,3,3,-4,4,-2,2,-2,-2,-1,-1],[2,0,-2,0,0,0,0,0,1,0,1,0,0,0,0,0],[0,0,0,0,2,0,-2,0,0,0,0,0,1,0,1,0],[-6,6,6,-6,-4,-2,4,2,-3,3,-3,3,-2,-1,-2,-1],[4,-4,-4,4,2,2,-2,-2,2,-2,2,-2,1,1,1,1]],f=t=&gt;{let e=[];for(let s=0;s&lt;16;++s){e[s]=0;for(let r=0;r&lt;16;++r)e[s]+=u[s][r]*t[r]}return e},p=(t,e,s)=&gt;{const r=e*e,n=s*s,o=e*e*e,i=s*s*s;return t[0]+t[1]*e+t[2]*r+t[3]*o+t[4]*s+t[5]*s*e+t[6]*s*r+t[7]*s*o+t[8]*n+t[9]*n*e+t[10]*n*r+t[11]*n*o+t[12]*i+t[13]*i*e+t[14]*i*r+t[15]*i*o},y=t=&gt;{let e=[],s=[],r=[];for(let s=0;s&lt;4;++s)e[s]=[],e[s][0]=n(t[0][s],t[1][s],t[2][s],t[3][s]),e[s][1]=[],e[s][1].push(...n(...e[s][0][0])),e[s][1].push(...n(...e[s][0][1])),e[s][2]=[],e[s][2].push(...n(...e[s][1][0])),e[s][2].push(...n(...e[s][1][1])),e[s][2].push(...n(...e[s][1][2])),e[s][2].push(...n(...e[s][1][3]));for(let t=0;t&lt;8;++t){s[t]=[];for(let r=0;r&lt;4;++r)s[t][r]=[],s[t][r][0]=n(e[0][2][t][r],e[1][2][t][r],e[2][2][t][r],e[3][2][t][r]),s[t][r][1]=[],s[t][r][1].push(...n(...s[t][r][0][0])),s[t][r][1].push(...n(...s[t][r][0][1])),s[t][r][2]=[],s[t][r][2].push(...n(...s[t][r][1][0])),s[t][r][2].push(...n(...s[t][r][1][1])),s[t][r][2].push(...n(...s[t][r][1][2])),s[t][r][2].push(...n(...s[t][r][1][3]))}for(let t=0;t&lt;8;++t){r[t]=[];for(let e=0;e&lt;8;++e)r[t][e]=[],r[t][e][0]=s[t][0][2][e],r[t][e][1]=s[t][1][2][e],r[t][e][2]=s[t][2][2][e],r[t][e][3]=s[t][3][2][e]}return r};class x{constructor(t,e){this.x=t||0,this.y=e||0}toString(){return`(x=${this.x}, y=${this.y})`}clone(){return new x(this.x,this.y)}add(t){return new x(this.x+t.x,this.y+t.y)}scale(t){return void 0===t.x?new x(this.x*t,this.y*t):new x(this.x*t.x,this.y*t.y)}distSquared(t){let e=this.x-t.x,s=this.y-t.y;return e*e+s*s}transform(t){let e=this.x*t.a+this.y*t.c+t.e,s=this.x*t.b+this.y*t.d+t.f;return new x(e,s)}}class g{constructor(t,e,s,r,n,o){void 0===t?(this.a=1,this.b=0,this.c=0,this.d=1,this.e=0,this.f=0):(this.a=t,this.b=e,this.c=s,this.d=r,this.e=n,this.f=o)}toString(){return`affine: ${this.a} ${this.c} ${this.e} \n       ${this.b} ${this.d} ${this.f}`}append(t){t instanceof g||console.error(&quot;mesh.js: argument to Affine.append is not affine!&quot;);let e=this.a*t.a+this.c*t.b,s=this.b*t.a+this.d*t.b,r=this.a*t.c+this.c*t.d,n=this.b*t.c+this.d*t.d,o=this.a*t.e+this.c*t.f+this.e,i=this.b*t.e+this.d*t.f+this.f;return new g(e,s,r,n,o,i)}}class w{constructor(t,e){this.nodes=t,this.colors=e}paintCurve(t,e){if(o(this.nodes)&gt;r){const s=n(...this.nodes);let r=[[],[]],o=[[],[]];for(let t=0;t&lt;4;++t)r[0][t]=this.colors[0][t],r[1][t]=(this.colors[0][t]+this.colors[1][t])/2,o[0][t]=r[1][t],o[1][t]=this.colors[1][t];let i=new w(s[0],r),a=new w(s[1],o);i.paintCurve(t,e),a.paintCurve(t,e)}else{let s=Math.round(this.nodes[0].x);if(s&gt;=0&amp;&amp;s&lt;e){let r=4*(~~this.nodes[0].y*e+s);t[r]=Math.round(this.colors[0][0]),t[r+1]=Math.round(this.colors[0][1]),t[r+2]=Math.round(this.colors[0][2]),t[r+3]=Math.round(this.colors[0][3])}}}}class m{constructor(t,e){this.nodes=t,this.colors=e}split(){let t=[[],[],[],[]],e=[[],[],[],[]],s=[[[],[]],[[],[]]],r=[[[],[]],[[],[]]];for(let s=0;s&lt;4;++s){const r=n(this.nodes[0][s],this.nodes[1][s],this.nodes[2][s],this.nodes[3][s]);t[0][s]=r[0][0],t[1][s]=r[0][1],t[2][s]=r[0][2],t[3][s]=r[0][3],e[0][s]=r[1][0],e[1][s]=r[1][1],e[2][s]=r[1][2],e[3][s]=r[1][3]}for(let t=0;t&lt;4;++t)s[0][0][t]=this.colors[0][0][t],s[0][1][t]=this.colors[0][1][t],s[1][0][t]=(this.colors[0][0][t]+this.colors[1][0][t])/2,s[1][1][t]=(this.colors[0][1][t]+this.colors[1][1][t])/2,r[0][0][t]=s[1][0][t],r[0][1][t]=s[1][1][t],r[1][0][t]=this.colors[1][0][t],r[1][1][t]=this.colors[1][1][t];return[new m(t,s),new m(e,r)]}paint(t,e){let s,n=!1;for(let t=0;t&lt;4;++t)if((s=o([this.nodes[0][t],this.nodes[1][t],this.nodes[2][t],this.nodes[3][t]]))&gt;r){n=!0;break}if(n){let s=this.split();s[0].paint(t,e),s[1].paint(t,e)}else{new w([...this.nodes[0]],[...this.colors[0]]).paintCurve(t,e)}}}class b{constructor(t){this.readMesh(t),this.type=t.getAttribute(&quot;type&quot;)||&quot;bilinear&quot;}readMesh(t){let e=[[]],s=[[]],r=Number(t.getAttribute(&quot;x&quot;)),n=Number(t.getAttribute(&quot;y&quot;));e[0][0]=new x(r,n);let o=t.children;for(let t=0,r=o.length;t&lt;r;++t){e[3*t+1]=[],e[3*t+2]=[],e[3*t+3]=[],s[t+1]=[];let r=o[t].children;for(let n=0,o=r.length;n&lt;o;++n){let o=r[n].children;for(let r=0,i=o.length;r&lt;i;++r){let i=r;0!==t&amp;&amp;++i;let h,d=o[r].getAttribute(&quot;path&quot;),c=&quot;l&quot;;null!=d&amp;&amp;(c=(h=d.match(/\s*([lLcC])\s*(.*)/))[1]);let u=l(h[2]);switch(c){case&quot;l&quot;:0===i?(e[3*t][3*n+3]=u[0].add(e[3*t][3*n]),e[3*t][3*n+1]=a(e[3*t][3*n],e[3*t][3*n+3]),e[3*t][3*n+2]=a(e[3*t][3*n+3],e[3*t][3*n])):1===i?(e[3*t+3][3*n+3]=u[0].add(e[3*t][3*n+3]),e[3*t+1][3*n+3]=a(e[3*t][3*n+3],e[3*t+3][3*n+3]),e[3*t+2][3*n+3]=a(e[3*t+3][3*n+3],e[3*t][3*n+3])):2===i?(0===n&amp;&amp;(e[3*t+3][3*n+0]=u[0].add(e[3*t+3][3*n+3])),e[3*t+3][3*n+1]=a(e[3*t+3][3*n],e[3*t+3][3*n+3]),e[3*t+3][3*n+2]=a(e[3*t+3][3*n+3],e[3*t+3][3*n])):(e[3*t+1][3*n]=a(e[3*t][3*n],e[3*t+3][3*n]),e[3*t+2][3*n]=a(e[3*t+3][3*n],e[3*t][3*n]));break;case&quot;L&quot;:0===i?(e[3*t][3*n+3]=u[0],e[3*t][3*n+1]=a(e[3*t][3*n],e[3*t][3*n+3]),e[3*t][3*n+2]=a(e[3*t][3*n+3],e[3*t][3*n])):1===i?(e[3*t+3][3*n+3]=u[0],e[3*t+1][3*n+3]=a(e[3*t][3*n+3],e[3*t+3][3*n+3]),e[3*t+2][3*n+3]=a(e[3*t+3][3*n+3],e[3*t][3*n+3])):2===i?(0===n&amp;&amp;(e[3*t+3][3*n+0]=u[0]),e[3*t+3][3*n+1]=a(e[3*t+3][3*n],e[3*t+3][3*n+3]),e[3*t+3][3*n+2]=a(e[3*t+3][3*n+3],e[3*t+3][3*n])):(e[3*t+1][3*n]=a(e[3*t][3*n],e[3*t+3][3*n]),e[3*t+2][3*n]=a(e[3*t+3][3*n],e[3*t][3*n]));break;case&quot;c&quot;:0===i?(e[3*t][3*n+1]=u[0].add(e[3*t][3*n]),e[3*t][3*n+2]=u[1].add(e[3*t][3*n]),e[3*t][3*n+3]=u[2].add(e[3*t][3*n])):1===i?(e[3*t+1][3*n+3]=u[0].add(e[3*t][3*n+3]),e[3*t+2][3*n+3]=u[1].add(e[3*t][3*n+3]),e[3*t+3][3*n+3]=u[2].add(e[3*t][3*n+3])):2===i?(e[3*t+3][3*n+2]=u[0].add(e[3*t+3][3*n+3]),e[3*t+3][3*n+1]=u[1].add(e[3*t+3][3*n+3]),0===n&amp;&amp;(e[3*t+3][3*n+0]=u[2].add(e[3*t+3][3*n+3]))):(e[3*t+2][3*n]=u[0].add(e[3*t+3][3*n]),e[3*t+1][3*n]=u[1].add(e[3*t+3][3*n]));break;case&quot;C&quot;:0===i?(e[3*t][3*n+1]=u[0],e[3*t][3*n+2]=u[1],e[3*t][3*n+3]=u[2]):1===i?(e[3*t+1][3*n+3]=u[0],e[3*t+2][3*n+3]=u[1],e[3*t+3][3*n+3]=u[2]):2===i?(e[3*t+3][3*n+2]=u[0],e[3*t+3][3*n+1]=u[1],0===n&amp;&amp;(e[3*t+3][3*n+0]=u[2])):(e[3*t+2][3*n]=u[0],e[3*t+1][3*n]=u[1]);break;default:console.error(&quot;mesh.js: &quot;+c+&quot; invalid path type.&quot;)}if(0===t&amp;&amp;0===n||r&gt;0){let e=window.getComputedStyle(o[r]).stopColor.match(/^rgb\s*\(\s*(\d+)\s*,\s*(\d+)\s*,\s*(\d+)\s*\)$/i),a=window.getComputedStyle(o[r]).stopOpacity,h=255;a&amp;&amp;(h=Math.floor(255*a)),e&amp;&amp;(0===i?(s[t][n]=[],s[t][n][0]=Math.floor(e[1]),s[t][n][1]=Math.floor(e[2]),s[t][n][2]=Math.floor(e[3]),s[t][n][3]=h):1===i?(s[t][n+1]=[],s[t][n+1][0]=Math.floor(e[1]),s[t][n+1][1]=Math.floor(e[2]),s[t][n+1][2]=Math.floor(e[3]),s[t][n+1][3]=h):2===i?(s[t+1][n+1]=[],s[t+1][n+1][0]=Math.floor(e[1]),s[t+1][n+1][1]=Math.floor(e[2]),s[t+1][n+1][2]=Math.floor(e[3]),s[t+1][n+1][3]=h):3===i&amp;&amp;(s[t+1][n]=[],s[t+1][n][0]=Math.floor(e[1]),s[t+1][n][1]=Math.floor(e[2]),s[t+1][n][2]=Math.floor(e[3]),s[t+1][n][3]=h))}}e[3*t+1][3*n+1]=new x,e[3*t+1][3*n+2]=new x,e[3*t+2][3*n+1]=new x,e[3*t+2][3*n+2]=new x,e[3*t+1][3*n+1].x=(-4*e[3*t][3*n].x+6*(e[3*t][3*n+1].x+e[3*t+1][3*n].x)+-2*(e[3*t][3*n+3].x+e[3*t+3][3*n].x)+3*(e[3*t+3][3*n+1].x+e[3*t+1][3*n+3].x)+-1*e[3*t+3][3*n+3].x)/9,e[3*t+1][3*n+2].x=(-4*e[3*t][3*n+3].x+6*(e[3*t][3*n+2].x+e[3*t+1][3*n+3].x)+-2*(e[3*t][3*n].x+e[3*t+3][3*n+3].x)+3*(e[3*t+3][3*n+2].x+e[3*t+1][3*n].x)+-1*e[3*t+3][3*n].x)/9,e[3*t+2][3*n+1].x=(-4*e[3*t+3][3*n].x+6*(e[3*t+3][3*n+1].x+e[3*t+2][3*n].x)+-2*(e[3*t+3][3*n+3].x+e[3*t][3*n].x)+3*(e[3*t][3*n+1].x+e[3*t+2][3*n+3].x)+-1*e[3*t][3*n+3].x)/9,e[3*t+2][3*n+2].x=(-4*e[3*t+3][3*n+3].x+6*(e[3*t+3][3*n+2].x+e[3*t+2][3*n+3].x)+-2*(e[3*t+3][3*n].x+e[3*t][3*n+3].x)+3*(e[3*t][3*n+2].x+e[3*t+2][3*n].x)+-1*e[3*t][3*n].x)/9,e[3*t+1][3*n+1].y=(-4*e[3*t][3*n].y+6*(e[3*t][3*n+1].y+e[3*t+1][3*n].y)+-2*(e[3*t][3*n+3].y+e[3*t+3][3*n].y)+3*(e[3*t+3][3*n+1].y+e[3*t+1][3*n+3].y)+-1*e[3*t+3][3*n+3].y)/9,e[3*t+1][3*n+2].y=(-4*e[3*t][3*n+3].y+6*(e[3*t][3*n+2].y+e[3*t+1][3*n+3].y)+-2*(e[3*t][3*n].y+e[3*t+3][3*n+3].y)+3*(e[3*t+3][3*n+2].y+e[3*t+1][3*n].y)+-1*e[3*t+3][3*n].y)/9,e[3*t+2][3*n+1].y=(-4*e[3*t+3][3*n].y+6*(e[3*t+3][3*n+1].y+e[3*t+2][3*n].y)+-2*(e[3*t+3][3*n+3].y+e[3*t][3*n].y)+3*(e[3*t][3*n+1].y+e[3*t+2][3*n+3].y)+-1*e[3*t][3*n+3].y)/9,e[3*t+2][3*n+2].y=(-4*e[3*t+3][3*n+3].y+6*(e[3*t+3][3*n+2].y+e[3*t+2][3*n+3].y)+-2*(e[3*t+3][3*n].y+e[3*t][3*n+3].y)+3*(e[3*t][3*n+2].y+e[3*t+2][3*n].y)+-1*e[3*t][3*n].y)/9}}this.nodes=e,this.colors=s}paintMesh(t,e){let s=(this.nodes.length-1)/3,r=(this.nodes[0].length-1)/3;if(&quot;bilinear&quot;===this.type||s&lt;2||r&lt;2){let n;for(let o=0;o&lt;s;++o)for(let s=0;s&lt;r;++s){let r=[];for(let t=3*o,e=3*o+4;t&lt;e;++t)r.push(this.nodes[t].slice(3*s,3*s+4));let i=[];i.push(this.colors[o].slice(s,s+2)),i.push(this.colors[o+1].slice(s,s+2)),(n=new m(r,i)).paint(t,e)}}else{let n,o,a,h,l,d,u;const x=s,g=r;s++,r++;let w=new Array(s);for(let t=0;t&lt;s;++t){w[t]=new Array(r);for(let e=0;e&lt;r;++e)w[t][e]=[],w[t][e][0]=this.nodes[3*t][3*e],w[t][e][1]=this.colors[t][e]}for(let t=0;t&lt;s;++t)for(let e=0;e&lt;r;++e)0!==t&amp;&amp;t!==x&amp;&amp;(n=i(w[t-1][e][0],w[t][e][0]),o=i(w[t+1][e][0],w[t][e][0]),w[t][e][2]=c(w[t-1][e][1],w[t][e][1],w[t+1][e][1],n,o)),0!==e&amp;&amp;e!==g&amp;&amp;(n=i(w[t][e-1][0],w[t][e][0]),o=i(w[t][e+1][0],w[t][e][0]),w[t][e][3]=c(w[t][e-1][1],w[t][e][1],w[t][e+1][1],n,o));for(let t=0;t&lt;r;++t){w[0][t][2]=[],w[x][t][2]=[];for(let e=0;e&lt;4;++e)n=i(w[1][t][0],w[0][t][0]),o=i(w[x][t][0],w[x-1][t][0]),w[0][t][2][e]=n&gt;0?2*(w[1][t][1][e]-w[0][t][1][e])/n-w[1][t][2][e]:0,w[x][t][2][e]=o&gt;0?2*(w[x][t][1][e]-w[x-1][t][1][e])/o-w[x-1][t][2][e]:0}for(let t=0;t&lt;s;++t){w[t][0][3]=[],w[t][g][3]=[];for(let e=0;e&lt;4;++e)n=i(w[t][1][0],w[t][0][0]),o=i(w[t][g][0],w[t][g-1][0]),w[t][0][3][e]=n&gt;0?2*(w[t][1][1][e]-w[t][0][1][e])/n-w[t][1][3][e]:0,w[t][g][3][e]=o&gt;0?2*(w[t][g][1][e]-w[t][g-1][1][e])/o-w[t][g-1][3][e]:0}for(let s=0;s&lt;x;++s)for(let r=0;r&lt;g;++r){let n=i(w[s][r][0],w[s+1][r][0]),o=i(w[s][r+1][0],w[s+1][r+1][0]),c=i(w[s][r][0],w[s][r+1][0]),x=i(w[s+1][r][0],w[s+1][r+1][0]),g=[[],[],[],[]];for(let t=0;t&lt;4;++t){(d=[])[0]=w[s][r][1][t],d[1]=w[s+1][r][1][t],d[2]=w[s][r+1][1][t],d[3]=w[s+1][r+1][1][t],d[4]=w[s][r][2][t]*n,d[5]=w[s+1][r][2][t]*n,d[6]=w[s][r+1][2][t]*o,d[7]=w[s+1][r+1][2][t]*o,d[8]=w[s][r][3][t]*c,d[9]=w[s+1][r][3][t]*x,d[10]=w[s][r+1][3][t]*c,d[11]=w[s+1][r+1][3][t]*x,d[12]=0,d[13]=0,d[14]=0,d[15]=0,u=f(d);for(let e=0;e&lt;9;++e){g[t][e]=[];for(let s=0;s&lt;9;++s)g[t][e][s]=p(u,e/8,s/8),g[t][e][s]&gt;255?g[t][e][s]=255:g[t][e][s]&lt;0&amp;&amp;(g[t][e][s]=0)}}h=[];for(let t=3*s,e=3*s+4;t&lt;e;++t)h.push(this.nodes[t].slice(3*r,3*r+4));l=y(h);for(let s=0;s&lt;8;++s)for(let r=0;r&lt;8;++r)(a=new m(l[s][r],[[[g[0][s][r],g[1][s][r],g[2][s][r],g[3][s][r]],[g[0][s][r+1],g[1][s][r+1],g[2][s][r+1],g[3][s][r+1]]],[[g[0][s+1][r],g[1][s+1][r],g[2][s+1][r],g[3][s+1][r]],[g[0][s+1][r+1],g[1][s+1][r+1],g[2][s+1][r+1],g[3][s+1][r+1]]]])).paint(t,e)}}}transform(t){if(t instanceof x)for(let e=0,s=this.nodes.length;e&lt;s;++e)for(let s=0,r=this.nodes[0].length;s&lt;r;++s)this.nodes[e][s]=this.nodes[e][s].add(t);else if(t instanceof g)for(let e=0,s=this.nodes.length;e&lt;s;++e)for(let s=0,r=this.nodes[0].length;s&lt;r;++s)this.nodes[e][s]=this.nodes[e][s].transform(t)}scale(t){for(let e=0,s=this.nodes.length;e&lt;s;++e)for(let s=0,r=this.nodes[0].length;s&lt;r;++s)this.nodes[e][s]=this.nodes[e][s].scale(t)}}document.querySelectorAll(&quot;rect,circle,ellipse,path,text&quot;).forEach((r,n)=&gt;{let o=r.getAttribute(&quot;id&quot;);o||(o=&quot;patchjs_shape&quot;+n,r.setAttribute(&quot;id&quot;,o));const i=r.style.fill.match(/^url\(\s*&quot;?\s*#([^\s&quot;]+)&quot;?\s*\)/),a=r.style.stroke.match(/^url\(\s*&quot;?\s*#([^\s&quot;]+)&quot;?\s*\)/);if(i&amp;&amp;i[1]){const a=document.getElementById(i[1]);if(a&amp;&amp;&quot;meshgradient&quot;===a.nodeName){const i=r.getBBox();let l=document.createElementNS(s,&quot;canvas&quot;);d(l,{width:i.width,height:i.height});const c=l.getContext(&quot;2d&quot;);let u=c.createImageData(i.width,i.height);const f=new b(a);&quot;objectBoundingBox&quot;===a.getAttribute(&quot;gradientUnits&quot;)&amp;&amp;f.scale(new x(i.width,i.height));const p=a.getAttribute(&quot;gradientTransform&quot;);null!=p&amp;&amp;f.transform(h(p)),&quot;userSpaceOnUse&quot;===a.getAttribute(&quot;gradientUnits&quot;)&amp;&amp;f.transform(new x(-i.x,-i.y)),f.paintMesh(u.data,l.width),c.putImageData(u,0,0);const y=document.createElementNS(t,&quot;image&quot;);d(y,{width:i.width,height:i.height,x:i.x,y:i.y});let g=l.toDataURL();y.setAttributeNS(e,&quot;xlink:href&quot;,g),r.parentNode.insertBefore(y,r),r.style.fill=&quot;none&quot;;const w=document.createElementNS(t,&quot;use&quot;);w.setAttributeNS(e,&quot;xlink:href&quot;,&quot;#&quot;+o);const m=&quot;patchjs_clip&quot;+n,M=document.createElementNS(t,&quot;clipPath&quot;);M.setAttribute(&quot;id&quot;,m),M.appendChild(w),r.parentElement.insertBefore(M,r),y.setAttribute(&quot;clip-path&quot;,&quot;url(#&quot;+m+&quot;)&quot;),u=null,l=null,g=null}}if(a&amp;&amp;a[1]){const o=document.getElementById(a[1]);if(o&amp;&amp;&quot;meshgradient&quot;===o.nodeName){const i=parseFloat(r.style.strokeWidth.slice(0,-2))*(parseFloat(r.style.strokeMiterlimit)||parseFloat(r.getAttribute(&quot;stroke-miterlimit&quot;))||1),a=r.getBBox(),l=Math.trunc(a.width+i),c=Math.trunc(a.height+i),u=Math.trunc(a.x-i/2),f=Math.trunc(a.y-i/2);let p=document.createElementNS(s,&quot;canvas&quot;);d(p,{width:l,height:c});const y=p.getContext(&quot;2d&quot;);let g=y.createImageData(l,c);const w=new b(o);&quot;objectBoundingBox&quot;===o.getAttribute(&quot;gradientUnits&quot;)&amp;&amp;w.scale(new x(l,c));const m=o.getAttribute(&quot;gradientTransform&quot;);null!=m&amp;&amp;w.transform(h(m)),&quot;userSpaceOnUse&quot;===o.getAttribute(&quot;gradientUnits&quot;)&amp;&amp;w.transform(new x(-u,-f)),w.paintMesh(g.data,p.width),y.putImageData(g,0,0);const M=document.createElementNS(t,&quot;image&quot;);d(M,{width:l,height:c,x:0,y:0});let S=p.toDataURL();M.setAttributeNS(e,&quot;xlink:href&quot;,S);const k=&quot;pattern_clip&quot;+n,A=document.createElementNS(t,&quot;pattern&quot;);d(A,{id:k,patternUnits:&quot;userSpaceOnUse&quot;,width:l,height:c,x:u,y:f}),A.appendChild(M),o.parentNode.appendChild(A),r.style.stroke=&quot;url(#&quot;+k+&quot;)&quot;,g=null,p=null,S=null}}})}();
</script>
</svg>
